G04 #@! TF.GenerationSoftware,KiCad,Pcbnew,(6.0.10-0)*
G04 #@! TF.CreationDate,2023-01-23T10:06:28+00:00*
G04 #@! TF.ProjectId,Max50x100Plate,4d617835-3078-4313-9030-506c6174652e,rev?*
G04 #@! TF.SameCoordinates,Original*
G04 #@! TF.FileFunction,Legend,Bot*
G04 #@! TF.FilePolarity,Positive*
%FSLAX46Y46*%
G04 Gerber Fmt 4.6, Leading zero omitted, Abs format (unit mm)*
G04 Created by KiCad (PCBNEW (6.0.10-0)) date 2023-01-23 10:06:28*
%MOMM*%
%LPD*%
G01*
G04 APERTURE LIST*
%ADD10C,0.300000*%
%ADD11C,0.170000*%
%ADD12C,0.150000*%
%ADD13C,3.200000*%
%ADD14C,3.000000*%
G04 APERTURE END LIST*
D10*
X159428571Y-117056071D02*
X159428571Y-115556071D01*
X158928571Y-116627500D01*
X158428571Y-115556071D01*
X158428571Y-117056071D01*
X157071428Y-117056071D02*
X157071428Y-116270357D01*
X157142857Y-116127500D01*
X157285714Y-116056071D01*
X157571428Y-116056071D01*
X157714285Y-116127500D01*
X157071428Y-116984642D02*
X157214285Y-117056071D01*
X157571428Y-117056071D01*
X157714285Y-116984642D01*
X157785714Y-116841785D01*
X157785714Y-116698928D01*
X157714285Y-116556071D01*
X157571428Y-116484642D01*
X157214285Y-116484642D01*
X157071428Y-116413214D01*
X156500000Y-117056071D02*
X155714285Y-116056071D01*
X156500000Y-116056071D02*
X155714285Y-117056071D01*
X155142857Y-117056071D02*
X155142857Y-115556071D01*
X154571428Y-115556071D01*
X154428571Y-115627500D01*
X154357142Y-115698928D01*
X154285714Y-115841785D01*
X154285714Y-116056071D01*
X154357142Y-116198928D01*
X154428571Y-116270357D01*
X154571428Y-116341785D01*
X155142857Y-116341785D01*
X153428571Y-117056071D02*
X153571428Y-116984642D01*
X153642857Y-116841785D01*
X153642857Y-115556071D01*
X152214285Y-117056071D02*
X152214285Y-116270357D01*
X152285714Y-116127500D01*
X152428571Y-116056071D01*
X152714285Y-116056071D01*
X152857142Y-116127500D01*
X152214285Y-116984642D02*
X152357142Y-117056071D01*
X152714285Y-117056071D01*
X152857142Y-116984642D01*
X152928571Y-116841785D01*
X152928571Y-116698928D01*
X152857142Y-116556071D01*
X152714285Y-116484642D01*
X152357142Y-116484642D01*
X152214285Y-116413214D01*
X151714285Y-116056071D02*
X151142857Y-116056071D01*
X151500000Y-115556071D02*
X151500000Y-116841785D01*
X151428571Y-116984642D01*
X151285714Y-117056071D01*
X151142857Y-117056071D01*
X150071428Y-116984642D02*
X150214285Y-117056071D01*
X150500000Y-117056071D01*
X150642857Y-116984642D01*
X150714285Y-116841785D01*
X150714285Y-116270357D01*
X150642857Y-116127500D01*
X150500000Y-116056071D01*
X150214285Y-116056071D01*
X150071428Y-116127500D01*
X150000000Y-116270357D01*
X150000000Y-116413214D01*
X150714285Y-116556071D01*
X147500000Y-115556071D02*
X148214285Y-115556071D01*
X148285714Y-116270357D01*
X148214285Y-116198928D01*
X148071428Y-116127500D01*
X147714285Y-116127500D01*
X147571428Y-116198928D01*
X147500000Y-116270357D01*
X147428571Y-116413214D01*
X147428571Y-116770357D01*
X147500000Y-116913214D01*
X147571428Y-116984642D01*
X147714285Y-117056071D01*
X148071428Y-117056071D01*
X148214285Y-116984642D01*
X148285714Y-116913214D01*
X146500000Y-115556071D02*
X146357142Y-115556071D01*
X146214285Y-115627500D01*
X146142857Y-115698928D01*
X146071428Y-115841785D01*
X146000000Y-116127500D01*
X146000000Y-116484642D01*
X146071428Y-116770357D01*
X146142857Y-116913214D01*
X146214285Y-116984642D01*
X146357142Y-117056071D01*
X146500000Y-117056071D01*
X146642857Y-116984642D01*
X146714285Y-116913214D01*
X146785714Y-116770357D01*
X146857142Y-116484642D01*
X146857142Y-116127500D01*
X146785714Y-115841785D01*
X146714285Y-115698928D01*
X146642857Y-115627500D01*
X146500000Y-115556071D01*
X145500000Y-117056071D02*
X144714285Y-116056071D01*
X145500000Y-116056071D02*
X144714285Y-117056071D01*
X143357142Y-117056071D02*
X144214285Y-117056071D01*
X143785714Y-117056071D02*
X143785714Y-115556071D01*
X143928571Y-115770357D01*
X144071428Y-115913214D01*
X144214285Y-115984642D01*
X142428571Y-115556071D02*
X142285714Y-115556071D01*
X142142857Y-115627500D01*
X142071428Y-115698928D01*
X142000000Y-115841785D01*
X141928571Y-116127500D01*
X141928571Y-116484642D01*
X142000000Y-116770357D01*
X142071428Y-116913214D01*
X142142857Y-116984642D01*
X142285714Y-117056071D01*
X142428571Y-117056071D01*
X142571428Y-116984642D01*
X142642857Y-116913214D01*
X142714285Y-116770357D01*
X142785714Y-116484642D01*
X142785714Y-116127500D01*
X142714285Y-115841785D01*
X142642857Y-115698928D01*
X142571428Y-115627500D01*
X142428571Y-115556071D01*
X141000000Y-115556071D02*
X140857142Y-115556071D01*
X140714285Y-115627500D01*
X140642857Y-115698928D01*
X140571428Y-115841785D01*
X140500000Y-116127500D01*
X140500000Y-116484642D01*
X140571428Y-116770357D01*
X140642857Y-116913214D01*
X140714285Y-116984642D01*
X140857142Y-117056071D01*
X141000000Y-117056071D01*
X141142857Y-116984642D01*
X141214285Y-116913214D01*
X141285714Y-116770357D01*
X141357142Y-116484642D01*
X141357142Y-116127500D01*
X141285714Y-115841785D01*
X141214285Y-115698928D01*
X141142857Y-115627500D01*
X141000000Y-115556071D01*
X166571428Y-119328214D02*
X166642857Y-119399642D01*
X166857142Y-119471071D01*
X167000000Y-119471071D01*
X167214285Y-119399642D01*
X167357142Y-119256785D01*
X167428571Y-119113928D01*
X167500000Y-118828214D01*
X167500000Y-118613928D01*
X167428571Y-118328214D01*
X167357142Y-118185357D01*
X167214285Y-118042500D01*
X167000000Y-117971071D01*
X166857142Y-117971071D01*
X166642857Y-118042500D01*
X166571428Y-118113928D01*
X165714285Y-119471071D02*
X165857142Y-119399642D01*
X165928571Y-119328214D01*
X166000000Y-119185357D01*
X166000000Y-118756785D01*
X165928571Y-118613928D01*
X165857142Y-118542500D01*
X165714285Y-118471071D01*
X165500000Y-118471071D01*
X165357142Y-118542500D01*
X165285714Y-118613928D01*
X165214285Y-118756785D01*
X165214285Y-119185357D01*
X165285714Y-119328214D01*
X165357142Y-119399642D01*
X165500000Y-119471071D01*
X165714285Y-119471071D01*
X164571428Y-118471071D02*
X164571428Y-119971071D01*
X164571428Y-118542500D02*
X164428571Y-118471071D01*
X164142857Y-118471071D01*
X164000000Y-118542500D01*
X163928571Y-118613928D01*
X163857142Y-118756785D01*
X163857142Y-119185357D01*
X163928571Y-119328214D01*
X164000000Y-119399642D01*
X164142857Y-119471071D01*
X164428571Y-119471071D01*
X164571428Y-119399642D01*
X163357142Y-118471071D02*
X163000000Y-119471071D01*
X162642857Y-118471071D02*
X163000000Y-119471071D01*
X163142857Y-119828214D01*
X163214285Y-119899642D01*
X163357142Y-119971071D01*
X162071428Y-119471071D02*
X162071428Y-118471071D01*
X162071428Y-118756785D02*
X162000000Y-118613928D01*
X161928571Y-118542500D01*
X161785714Y-118471071D01*
X161642857Y-118471071D01*
X161142857Y-119471071D02*
X161142857Y-118471071D01*
X161142857Y-117971071D02*
X161214285Y-118042500D01*
X161142857Y-118113928D01*
X161071428Y-118042500D01*
X161142857Y-117971071D01*
X161142857Y-118113928D01*
X159785714Y-118471071D02*
X159785714Y-119685357D01*
X159857142Y-119828214D01*
X159928571Y-119899642D01*
X160071428Y-119971071D01*
X160285714Y-119971071D01*
X160428571Y-119899642D01*
X159785714Y-119399642D02*
X159928571Y-119471071D01*
X160214285Y-119471071D01*
X160357142Y-119399642D01*
X160428571Y-119328214D01*
X160500000Y-119185357D01*
X160500000Y-118756785D01*
X160428571Y-118613928D01*
X160357142Y-118542500D01*
X160214285Y-118471071D01*
X159928571Y-118471071D01*
X159785714Y-118542500D01*
X159071428Y-119471071D02*
X159071428Y-117971071D01*
X158428571Y-119471071D02*
X158428571Y-118685357D01*
X158500000Y-118542500D01*
X158642857Y-118471071D01*
X158857142Y-118471071D01*
X159000000Y-118542500D01*
X159071428Y-118613928D01*
X157928571Y-118471071D02*
X157357142Y-118471071D01*
X157714285Y-117971071D02*
X157714285Y-119256785D01*
X157642857Y-119399642D01*
X157500000Y-119471071D01*
X157357142Y-119471071D01*
X155785714Y-119042500D02*
X155071428Y-119042500D01*
X155928571Y-119471071D02*
X155428571Y-117971071D01*
X154928571Y-119471071D01*
X154428571Y-118471071D02*
X154428571Y-119471071D01*
X154428571Y-118613928D02*
X154357142Y-118542500D01*
X154214285Y-118471071D01*
X154000000Y-118471071D01*
X153857142Y-118542500D01*
X153785714Y-118685357D01*
X153785714Y-119471071D01*
X152428571Y-119471071D02*
X152428571Y-117971071D01*
X152428571Y-119399642D02*
X152571428Y-119471071D01*
X152857142Y-119471071D01*
X153000000Y-119399642D01*
X153071428Y-119328214D01*
X153142857Y-119185357D01*
X153142857Y-118756785D01*
X153071428Y-118613928D01*
X153000000Y-118542500D01*
X152857142Y-118471071D01*
X152571428Y-118471071D01*
X152428571Y-118542500D01*
X151714285Y-119471071D02*
X151714285Y-118471071D01*
X151714285Y-118756785D02*
X151642857Y-118613928D01*
X151571428Y-118542500D01*
X151428571Y-118471071D01*
X151285714Y-118471071D01*
X150214285Y-119399642D02*
X150357142Y-119471071D01*
X150642857Y-119471071D01*
X150785714Y-119399642D01*
X150857142Y-119256785D01*
X150857142Y-118685357D01*
X150785714Y-118542500D01*
X150642857Y-118471071D01*
X150357142Y-118471071D01*
X150214285Y-118542500D01*
X150142857Y-118685357D01*
X150142857Y-118828214D01*
X150857142Y-118971071D01*
X149642857Y-118471071D02*
X149357142Y-119471071D01*
X149071428Y-118756785D01*
X148785714Y-119471071D01*
X148500000Y-118471071D01*
X146285714Y-118685357D02*
X146785714Y-118685357D01*
X146785714Y-119471071D02*
X146785714Y-117971071D01*
X146071428Y-117971071D01*
X145500000Y-119471071D02*
X145500000Y-118471071D01*
X145500000Y-117971071D02*
X145571428Y-118042500D01*
X145500000Y-118113928D01*
X145428571Y-118042500D01*
X145500000Y-117971071D01*
X145500000Y-118113928D01*
X144857142Y-119399642D02*
X144714285Y-119471071D01*
X144428571Y-119471071D01*
X144285714Y-119399642D01*
X144214285Y-119256785D01*
X144214285Y-119185357D01*
X144285714Y-119042500D01*
X144428571Y-118971071D01*
X144642857Y-118971071D01*
X144785714Y-118899642D01*
X144857142Y-118756785D01*
X144857142Y-118685357D01*
X144785714Y-118542500D01*
X144642857Y-118471071D01*
X144428571Y-118471071D01*
X144285714Y-118542500D01*
X142928571Y-119399642D02*
X143071428Y-119471071D01*
X143357142Y-119471071D01*
X143500000Y-119399642D01*
X143571428Y-119328214D01*
X143642857Y-119185357D01*
X143642857Y-118756785D01*
X143571428Y-118613928D01*
X143500000Y-118542500D01*
X143357142Y-118471071D01*
X143071428Y-118471071D01*
X142928571Y-118542500D01*
X142285714Y-119471071D02*
X142285714Y-117971071D01*
X141642857Y-119471071D02*
X141642857Y-118685357D01*
X141714285Y-118542500D01*
X141857142Y-118471071D01*
X142071428Y-118471071D01*
X142214285Y-118542500D01*
X142285714Y-118613928D01*
X140357142Y-119399642D02*
X140500000Y-119471071D01*
X140785714Y-119471071D01*
X140928571Y-119399642D01*
X141000000Y-119256785D01*
X141000000Y-118685357D01*
X140928571Y-118542500D01*
X140785714Y-118471071D01*
X140500000Y-118471071D01*
X140357142Y-118542500D01*
X140285714Y-118685357D01*
X140285714Y-118828214D01*
X141000000Y-118971071D01*
X139642857Y-119471071D02*
X139642857Y-118471071D01*
X139642857Y-118756785D02*
X139571428Y-118613928D01*
X139500000Y-118542500D01*
X139357142Y-118471071D01*
X139214285Y-118471071D01*
X137642857Y-118113928D02*
X137571428Y-118042500D01*
X137428571Y-117971071D01*
X137071428Y-117971071D01*
X136928571Y-118042500D01*
X136857142Y-118113928D01*
X136785714Y-118256785D01*
X136785714Y-118399642D01*
X136857142Y-118613928D01*
X137714285Y-119471071D01*
X136785714Y-119471071D01*
X135857142Y-117971071D02*
X135714285Y-117971071D01*
X135571428Y-118042500D01*
X135500000Y-118113928D01*
X135428571Y-118256785D01*
X135357142Y-118542500D01*
X135357142Y-118899642D01*
X135428571Y-119185357D01*
X135500000Y-119328214D01*
X135571428Y-119399642D01*
X135714285Y-119471071D01*
X135857142Y-119471071D01*
X136000000Y-119399642D01*
X136071428Y-119328214D01*
X136142857Y-119185357D01*
X136214285Y-118899642D01*
X136214285Y-118542500D01*
X136142857Y-118256785D01*
X136071428Y-118113928D01*
X136000000Y-118042500D01*
X135857142Y-117971071D01*
X134785714Y-118113928D02*
X134714285Y-118042500D01*
X134571428Y-117971071D01*
X134214285Y-117971071D01*
X134071428Y-118042500D01*
X134000000Y-118113928D01*
X133928571Y-118256785D01*
X133928571Y-118399642D01*
X134000000Y-118613928D01*
X134857142Y-119471071D01*
X133928571Y-119471071D01*
X133428571Y-117971071D02*
X132500000Y-117971071D01*
X133000000Y-118542500D01*
X132785714Y-118542500D01*
X132642857Y-118613928D01*
X132571428Y-118685357D01*
X132500000Y-118828214D01*
X132500000Y-119185357D01*
X132571428Y-119328214D01*
X132642857Y-119399642D01*
X132785714Y-119471071D01*
X133214285Y-119471071D01*
X133357142Y-119399642D01*
X133428571Y-119328214D01*
X157785714Y-121743214D02*
X157857142Y-121814642D01*
X158071428Y-121886071D01*
X158214285Y-121886071D01*
X158428571Y-121814642D01*
X158571428Y-121671785D01*
X158642857Y-121528928D01*
X158714285Y-121243214D01*
X158714285Y-121028928D01*
X158642857Y-120743214D01*
X158571428Y-120600357D01*
X158428571Y-120457500D01*
X158214285Y-120386071D01*
X158071428Y-120386071D01*
X157857142Y-120457500D01*
X157785714Y-120528928D01*
X156285714Y-121743214D02*
X156357142Y-121814642D01*
X156571428Y-121886071D01*
X156714285Y-121886071D01*
X156928571Y-121814642D01*
X157071428Y-121671785D01*
X157142857Y-121528928D01*
X157214285Y-121243214D01*
X157214285Y-121028928D01*
X157142857Y-120743214D01*
X157071428Y-120600357D01*
X156928571Y-120457500D01*
X156714285Y-120386071D01*
X156571428Y-120386071D01*
X156357142Y-120457500D01*
X156285714Y-120528928D01*
X155642857Y-121314642D02*
X154500000Y-121314642D01*
X153285714Y-121100357D02*
X153071428Y-121171785D01*
X153000000Y-121243214D01*
X152928571Y-121386071D01*
X152928571Y-121600357D01*
X153000000Y-121743214D01*
X153071428Y-121814642D01*
X153214285Y-121886071D01*
X153785714Y-121886071D01*
X153785714Y-120386071D01*
X153285714Y-120386071D01*
X153142857Y-120457500D01*
X153071428Y-120528928D01*
X153000000Y-120671785D01*
X153000000Y-120814642D01*
X153071428Y-120957500D01*
X153142857Y-121028928D01*
X153285714Y-121100357D01*
X153785714Y-121100357D01*
X152000000Y-121171785D02*
X152000000Y-121886071D01*
X152500000Y-120386071D02*
X152000000Y-121171785D01*
X151500000Y-120386071D01*
X151000000Y-121314642D02*
X149857142Y-121314642D01*
X149142857Y-121886071D02*
X149142857Y-120386071D01*
X148285714Y-121886071D01*
X148285714Y-120386071D01*
X146714285Y-121743214D02*
X146785714Y-121814642D01*
X147000000Y-121886071D01*
X147142857Y-121886071D01*
X147357142Y-121814642D01*
X147500000Y-121671785D01*
X147571428Y-121528928D01*
X147642857Y-121243214D01*
X147642857Y-121028928D01*
X147571428Y-120743214D01*
X147500000Y-120600357D01*
X147357142Y-120457500D01*
X147142857Y-120386071D01*
X147000000Y-120386071D01*
X146785714Y-120457500D01*
X146714285Y-120528928D01*
X146071428Y-121314642D02*
X144928571Y-121314642D01*
X143571428Y-120886071D02*
X143571428Y-121886071D01*
X143928571Y-120314642D02*
X144285714Y-121386071D01*
X143357142Y-121386071D01*
X142785714Y-121743214D02*
X142714285Y-121814642D01*
X142785714Y-121886071D01*
X142857142Y-121814642D01*
X142785714Y-121743214D01*
X142785714Y-121886071D01*
X141785714Y-120386071D02*
X141642857Y-120386071D01*
X141500000Y-120457500D01*
X141428571Y-120528928D01*
X141357142Y-120671785D01*
X141285714Y-120957500D01*
X141285714Y-121314642D01*
X141357142Y-121600357D01*
X141428571Y-121743214D01*
X141500000Y-121814642D01*
X141642857Y-121886071D01*
X141785714Y-121886071D01*
X141928571Y-121814642D01*
X142000000Y-121743214D01*
X142071428Y-121600357D01*
X142142857Y-121314642D01*
X142142857Y-120957500D01*
X142071428Y-120671785D01*
X142000000Y-120528928D01*
X141928571Y-120457500D01*
X141785714Y-120386071D01*
X155428571Y-122943928D02*
X155357142Y-122872500D01*
X155214285Y-122801071D01*
X154857142Y-122801071D01*
X154714285Y-122872500D01*
X154642857Y-122943928D01*
X154571428Y-123086785D01*
X154571428Y-123229642D01*
X154642857Y-123443928D01*
X155500000Y-124301071D01*
X154571428Y-124301071D01*
X154071428Y-122801071D02*
X153142857Y-122801071D01*
X153642857Y-123372500D01*
X153428571Y-123372500D01*
X153285714Y-123443928D01*
X153214285Y-123515357D01*
X153142857Y-123658214D01*
X153142857Y-124015357D01*
X153214285Y-124158214D01*
X153285714Y-124229642D01*
X153428571Y-124301071D01*
X153857142Y-124301071D01*
X154000000Y-124229642D01*
X154071428Y-124158214D01*
X152214285Y-122801071D02*
X152071428Y-122801071D01*
X151928571Y-122872500D01*
X151857142Y-122943928D01*
X151785714Y-123086785D01*
X151714285Y-123372500D01*
X151714285Y-123729642D01*
X151785714Y-124015357D01*
X151857142Y-124158214D01*
X151928571Y-124229642D01*
X152071428Y-124301071D01*
X152214285Y-124301071D01*
X152357142Y-124229642D01*
X152428571Y-124158214D01*
X152500000Y-124015357D01*
X152571428Y-123729642D01*
X152571428Y-123372500D01*
X152500000Y-123086785D01*
X152428571Y-122943928D01*
X152357142Y-122872500D01*
X152214285Y-122801071D01*
X150285714Y-124301071D02*
X151142857Y-124301071D01*
X150714285Y-124301071D02*
X150714285Y-122801071D01*
X150857142Y-123015357D01*
X151000000Y-123158214D01*
X151142857Y-123229642D01*
X149714285Y-122943928D02*
X149642857Y-122872500D01*
X149500000Y-122801071D01*
X149142857Y-122801071D01*
X149000000Y-122872500D01*
X148928571Y-122943928D01*
X148857142Y-123086785D01*
X148857142Y-123229642D01*
X148928571Y-123443928D01*
X149785714Y-124301071D01*
X148857142Y-124301071D01*
X147928571Y-122801071D02*
X147785714Y-122801071D01*
X147642857Y-122872500D01*
X147571428Y-122943928D01*
X147500000Y-123086785D01*
X147428571Y-123372500D01*
X147428571Y-123729642D01*
X147500000Y-124015357D01*
X147571428Y-124158214D01*
X147642857Y-124229642D01*
X147785714Y-124301071D01*
X147928571Y-124301071D01*
X148071428Y-124229642D01*
X148142857Y-124158214D01*
X148214285Y-124015357D01*
X148285714Y-123729642D01*
X148285714Y-123372500D01*
X148214285Y-123086785D01*
X148142857Y-122943928D01*
X148071428Y-122872500D01*
X147928571Y-122801071D01*
X146857142Y-122943928D02*
X146785714Y-122872500D01*
X146642857Y-122801071D01*
X146285714Y-122801071D01*
X146142857Y-122872500D01*
X146071428Y-122943928D01*
X146000000Y-123086785D01*
X146000000Y-123229642D01*
X146071428Y-123443928D01*
X146928571Y-124301071D01*
X146000000Y-124301071D01*
X145500000Y-122801071D02*
X144571428Y-122801071D01*
X145071428Y-123372500D01*
X144857142Y-123372500D01*
X144714285Y-123443928D01*
X144642857Y-123515357D01*
X144571428Y-123658214D01*
X144571428Y-124015357D01*
X144642857Y-124158214D01*
X144714285Y-124229642D01*
X144857142Y-124301071D01*
X145285714Y-124301071D01*
X145428571Y-124229642D01*
X145500000Y-124158214D01*
D11*
X136828551Y-140994827D02*
X137514265Y-140994827D01*
X137171408Y-140994827D02*
X137171408Y-139794827D01*
X137285694Y-139966255D01*
X137399980Y-140080541D01*
X137514265Y-140137684D01*
X136085694Y-139794827D02*
X135971408Y-139794827D01*
X135857122Y-139851970D01*
X135799980Y-139909112D01*
X135742837Y-140023398D01*
X135685694Y-140251970D01*
X135685694Y-140537684D01*
X135742837Y-140766255D01*
X135799980Y-140880541D01*
X135857122Y-140937684D01*
X135971408Y-140994827D01*
X136085694Y-140994827D01*
X136199980Y-140937684D01*
X136257122Y-140880541D01*
X136314265Y-140766255D01*
X136371408Y-140537684D01*
X136371408Y-140251970D01*
X136314265Y-140023398D01*
X136257122Y-139909112D01*
X136199980Y-139851970D01*
X136085694Y-139794827D01*
X135171408Y-140994827D02*
X135171408Y-140194827D01*
X135171408Y-140309112D02*
X135114265Y-140251970D01*
X134999980Y-140194827D01*
X134828551Y-140194827D01*
X134714265Y-140251970D01*
X134657122Y-140366255D01*
X134657122Y-140994827D01*
X134657122Y-140366255D02*
X134599980Y-140251970D01*
X134485694Y-140194827D01*
X134314265Y-140194827D01*
X134199980Y-140251970D01*
X134142837Y-140366255D01*
X134142837Y-140994827D01*
X133571408Y-140994827D02*
X133571408Y-140194827D01*
X133571408Y-140309112D02*
X133514265Y-140251970D01*
X133399980Y-140194827D01*
X133228551Y-140194827D01*
X133114265Y-140251970D01*
X133057122Y-140366255D01*
X133057122Y-140994827D01*
X133057122Y-140366255D02*
X132999980Y-140251970D01*
X132885694Y-140194827D01*
X132714265Y-140194827D01*
X132599980Y-140251970D01*
X132542837Y-140366255D01*
X132542837Y-140994827D01*
X146013305Y-139708452D02*
X145956162Y-139651310D01*
X145841877Y-139594167D01*
X145556162Y-139594167D01*
X145441877Y-139651310D01*
X145384734Y-139708452D01*
X145327591Y-139822738D01*
X145327591Y-139937024D01*
X145384734Y-140108452D01*
X146070448Y-140794167D01*
X145327591Y-140794167D01*
X144584734Y-139594167D02*
X144470448Y-139594167D01*
X144356162Y-139651310D01*
X144299020Y-139708452D01*
X144241877Y-139822738D01*
X144184734Y-140051310D01*
X144184734Y-140337024D01*
X144241877Y-140565595D01*
X144299020Y-140679881D01*
X144356162Y-140737024D01*
X144470448Y-140794167D01*
X144584734Y-140794167D01*
X144699020Y-140737024D01*
X144756162Y-140679881D01*
X144813305Y-140565595D01*
X144870448Y-140337024D01*
X144870448Y-140051310D01*
X144813305Y-139822738D01*
X144756162Y-139708452D01*
X144699020Y-139651310D01*
X144584734Y-139594167D01*
X125057142Y-139695767D02*
X124942857Y-139695767D01*
X124828571Y-139752910D01*
X124771428Y-139810052D01*
X124714285Y-139924338D01*
X124657142Y-140152910D01*
X124657142Y-140438624D01*
X124714285Y-140667195D01*
X124771428Y-140781481D01*
X124828571Y-140838624D01*
X124942857Y-140895767D01*
X125057142Y-140895767D01*
X125171428Y-140838624D01*
X125228571Y-140781481D01*
X125285714Y-140667195D01*
X125342857Y-140438624D01*
X125342857Y-140152910D01*
X125285714Y-139924338D01*
X125228571Y-139810052D01*
X125171428Y-139752910D01*
X125057142Y-139695767D01*
X165342777Y-139793507D02*
X165342777Y-140593507D01*
X165628491Y-139336364D02*
X165914205Y-140193507D01*
X165171348Y-140193507D01*
X164485634Y-139393507D02*
X164371348Y-139393507D01*
X164257062Y-139450650D01*
X164199920Y-139507792D01*
X164142777Y-139622078D01*
X164085634Y-139850650D01*
X164085634Y-140136364D01*
X164142777Y-140364935D01*
X164199920Y-140479221D01*
X164257062Y-140536364D01*
X164371348Y-140593507D01*
X164485634Y-140593507D01*
X164599920Y-140536364D01*
X164657062Y-140479221D01*
X164714205Y-140364935D01*
X164771348Y-140136364D01*
X164771348Y-139850650D01*
X164714205Y-139622078D01*
X164657062Y-139507792D01*
X164599920Y-139450650D01*
X164485634Y-139393507D01*
X155971368Y-139495107D02*
X155228511Y-139495107D01*
X155628511Y-139952250D01*
X155457082Y-139952250D01*
X155342797Y-140009392D01*
X155285654Y-140066535D01*
X155228511Y-140180821D01*
X155228511Y-140466535D01*
X155285654Y-140580821D01*
X155342797Y-140637964D01*
X155457082Y-140695107D01*
X155799940Y-140695107D01*
X155914225Y-140637964D01*
X155971368Y-140580821D01*
X154485654Y-139495107D02*
X154371368Y-139495107D01*
X154257082Y-139552250D01*
X154199940Y-139609392D01*
X154142797Y-139723678D01*
X154085654Y-139952250D01*
X154085654Y-140237964D01*
X154142797Y-140466535D01*
X154199940Y-140580821D01*
X154257082Y-140637964D01*
X154371368Y-140695107D01*
X154485654Y-140695107D01*
X154599940Y-140637964D01*
X154657082Y-140580821D01*
X154714225Y-140466535D01*
X154771368Y-140237964D01*
X154771368Y-139952250D01*
X154714225Y-139723678D01*
X154657082Y-139609392D01*
X154599940Y-139552250D01*
X154485654Y-139495107D01*
X176885614Y-139393507D02*
X177457042Y-139393507D01*
X177514185Y-139964935D01*
X177457042Y-139907792D01*
X177342757Y-139850650D01*
X177057042Y-139850650D01*
X176942757Y-139907792D01*
X176885614Y-139964935D01*
X176828471Y-140079221D01*
X176828471Y-140364935D01*
X176885614Y-140479221D01*
X176942757Y-140536364D01*
X177057042Y-140593507D01*
X177342757Y-140593507D01*
X177457042Y-140536364D01*
X177514185Y-140479221D01*
X176085614Y-139393507D02*
X175971328Y-139393507D01*
X175857042Y-139450650D01*
X175799900Y-139507792D01*
X175742757Y-139622078D01*
X175685614Y-139850650D01*
X175685614Y-140136364D01*
X175742757Y-140364935D01*
X175799900Y-140479221D01*
X175857042Y-140536364D01*
X175971328Y-140593507D01*
X176085614Y-140593507D01*
X176199900Y-140536364D01*
X176257042Y-140479221D01*
X176314185Y-140364935D01*
X176371328Y-140136364D01*
X176371328Y-139850650D01*
X176314185Y-139622078D01*
X176257042Y-139507792D01*
X176199900Y-139450650D01*
X176085614Y-139393507D01*
X175171328Y-140593507D02*
X175171328Y-139793507D01*
X175171328Y-139907792D02*
X175114185Y-139850650D01*
X174999900Y-139793507D01*
X174828471Y-139793507D01*
X174714185Y-139850650D01*
X174657042Y-139964935D01*
X174657042Y-140593507D01*
X174657042Y-139964935D02*
X174599900Y-139850650D01*
X174485614Y-139793507D01*
X174314185Y-139793507D01*
X174199900Y-139850650D01*
X174142757Y-139964935D01*
X174142757Y-140593507D01*
X173571328Y-140593507D02*
X173571328Y-139793507D01*
X173571328Y-139907792D02*
X173514185Y-139850650D01*
X173399900Y-139793507D01*
X173228471Y-139793507D01*
X173114185Y-139850650D01*
X173057042Y-139964935D01*
X173057042Y-140593507D01*
X173057042Y-139964935D02*
X172999900Y-139850650D01*
X172885614Y-139793507D01*
X172714185Y-139793507D01*
X172599900Y-139850650D01*
X172542757Y-139964935D01*
X172542757Y-140593507D01*
X129713005Y-139594167D02*
X130284434Y-139594167D01*
X130341577Y-140165595D01*
X130284434Y-140108452D01*
X130170148Y-140051310D01*
X129884434Y-140051310D01*
X129770148Y-140108452D01*
X129713005Y-140165595D01*
X129655862Y-140279881D01*
X129655862Y-140565595D01*
X129713005Y-140679881D01*
X129770148Y-140737024D01*
X129884434Y-140794167D01*
X130170148Y-140794167D01*
X130284434Y-140737024D01*
X130341577Y-140679881D01*
D12*
X154999940Y-143151990D02*
X154999940Y-141153010D01*
X132000240Y-143151990D02*
X132000240Y-142151230D01*
X133001000Y-143151990D02*
X133001000Y-142151230D01*
X126998980Y-143151990D02*
X126998980Y-142151230D01*
X144999960Y-143151990D02*
X144999960Y-141153010D01*
X160001200Y-143151990D02*
X160001200Y-142151230D01*
X127999740Y-143151990D02*
X127999740Y-142151230D01*
X130999480Y-143151990D02*
X130999480Y-142151230D01*
X130001260Y-143151990D02*
X130001260Y-141153010D01*
X134999980Y-143151990D02*
X174999900Y-143151990D01*
X150001220Y-143151990D02*
X150001220Y-142151230D01*
X134999980Y-143151990D02*
X134999980Y-141153010D01*
X170001180Y-143151990D02*
X170001180Y-142151230D01*
X174999900Y-143151990D02*
X174999900Y-141153010D01*
X125000000Y-143151990D02*
X125000000Y-141153010D01*
X140001240Y-143151990D02*
X140001240Y-142151230D01*
X164999920Y-143151990D02*
X164999920Y-141153010D01*
X125000000Y-143151990D02*
X134999980Y-143151990D01*
X129000500Y-143151990D02*
X129000500Y-142151230D01*
X126000760Y-143151990D02*
X126000760Y-142151230D01*
X133999220Y-143151990D02*
X133999220Y-142151230D01*
%LPC*%
D13*
X105000000Y-105000000D03*
X195000000Y-145000000D03*
D14*
X196000000Y-125000000D03*
D13*
X195000000Y-105000000D03*
X105000000Y-145000000D03*
M02*
