G04 #@! TF.GenerationSoftware,KiCad,Pcbnew,(6.0.10-0)*
G04 #@! TF.CreationDate,2023-01-23T10:06:28+00:00*
G04 #@! TF.ProjectId,Max50x100Plate,4d617835-3078-4313-9030-506c6174652e,rev?*
G04 #@! TF.SameCoordinates,Original*
G04 #@! TF.FileFunction,Legend,Top*
G04 #@! TF.FilePolarity,Positive*
%FSLAX46Y46*%
G04 Gerber Fmt 4.6, Leading zero omitted, Abs format (unit mm)*
G04 Created by KiCad (PCBNEW (6.0.10-0)) date 2023-01-23 10:06:28*
%MOMM*%
%LPD*%
G01*
G04 APERTURE LIST*
%ADD10C,0.150000*%
%ADD11C,0.120000*%
%ADD12C,3.200000*%
%ADD13C,3.000000*%
G04 APERTURE END LIST*
D10*
X104238095Y-101252380D02*
X104238095Y-100252380D01*
X104238095Y-100728571D02*
X104809523Y-100728571D01*
X104809523Y-101252380D02*
X104809523Y-100252380D01*
X105809523Y-101252380D02*
X105238095Y-101252380D01*
X105523809Y-101252380D02*
X105523809Y-100252380D01*
X105428571Y-100395238D01*
X105333333Y-100490476D01*
X105238095Y-100538095D01*
X194238095Y-141252380D02*
X194238095Y-140252380D01*
X194238095Y-140728571D02*
X194809523Y-140728571D01*
X194809523Y-141252380D02*
X194809523Y-140252380D01*
X195714285Y-140585714D02*
X195714285Y-141252380D01*
X195476190Y-140204761D02*
X195238095Y-140919047D01*
X195857142Y-140919047D01*
X194738095Y-122054380D02*
X195309523Y-122054380D01*
X195023809Y-123054380D02*
X195023809Y-122054380D01*
X195642857Y-123054380D02*
X195642857Y-122054380D01*
X196023809Y-122054380D01*
X196119047Y-122102000D01*
X196166666Y-122149619D01*
X196214285Y-122244857D01*
X196214285Y-122387714D01*
X196166666Y-122482952D01*
X196119047Y-122530571D01*
X196023809Y-122578190D01*
X195642857Y-122578190D01*
X197166666Y-123054380D02*
X196595238Y-123054380D01*
X196880952Y-123054380D02*
X196880952Y-122054380D01*
X196785714Y-122197238D01*
X196690476Y-122292476D01*
X196595238Y-122340095D01*
X194238095Y-101252380D02*
X194238095Y-100252380D01*
X194238095Y-100728571D02*
X194809523Y-100728571D01*
X194809523Y-101252380D02*
X194809523Y-100252380D01*
X195238095Y-100347619D02*
X195285714Y-100300000D01*
X195380952Y-100252380D01*
X195619047Y-100252380D01*
X195714285Y-100300000D01*
X195761904Y-100347619D01*
X195809523Y-100442857D01*
X195809523Y-100538095D01*
X195761904Y-100680952D01*
X195190476Y-101252380D01*
X195809523Y-101252380D01*
X104238095Y-141252380D02*
X104238095Y-140252380D01*
X104238095Y-140728571D02*
X104809523Y-140728571D01*
X104809523Y-141252380D02*
X104809523Y-140252380D01*
X105190476Y-140252380D02*
X105809523Y-140252380D01*
X105476190Y-140633333D01*
X105619047Y-140633333D01*
X105714285Y-140680952D01*
X105761904Y-140728571D01*
X105809523Y-140823809D01*
X105809523Y-141061904D01*
X105761904Y-141157142D01*
X105714285Y-141204761D01*
X105619047Y-141252380D01*
X105333333Y-141252380D01*
X105238095Y-141204761D01*
X105190476Y-141157142D01*
D11*
X197750000Y-125000000D02*
G75*
G03*
X197750000Y-125000000I-1750000J0D01*
G01*
%LPC*%
D12*
X105000000Y-105000000D03*
X195000000Y-145000000D03*
D13*
X196000000Y-125000000D03*
D12*
X195000000Y-105000000D03*
X105000000Y-145000000D03*
M02*
